<svg width="29" height="29" viewBox="0 0 29 29" fill="none" xmlns="http://www.w3.org/2000/svg">
<path d="M19.9076 18.5242C21.524 16.5653 22.5449 14.0529 22.5449 11.2849C22.5449 5.06755 17.4829 0 11.2725 0C5.06197 0 0 5.06755 0 11.2849C0 17.5022 5.06197 22.5697 11.2725 22.5697C13.9949 22.5697 16.5471 21.5903 18.5038 19.9295L27.2666 28.7019C27.4793 28.9148 27.7345 29 27.9897 29C28.245 29 28.5002 28.9148 28.7129 28.7019C29.0957 28.3186 29.0957 27.6373 28.7129 27.254L19.9076 18.5242ZM11.2299 20.5257C6.12541 20.5257 1.99927 16.395 1.99927 11.2849C1.99927 6.17474 6.12541 2.04405 11.2299 2.04405C16.3344 2.04405 20.4606 6.17474 20.4606 11.2849C20.4606 16.395 16.3344 20.5257 11.2299 20.5257Z" fill="#243A73"/>
</svg>
